<?xml version="1.0" encoding="utf-8"?>
<!-- Generator: Adobe Illustrator 25.1.0, SVG Export Plug-In . SVG Version: 6.00 Build 0)  -->
<svg version="1.1" id="Layer_1" xmlns="http://www.w3.org/2000/svg" xmlns:xlink="http://www.w3.org/1999/xlink" x="0px" y="0px"
	 viewBox="0 0 15 15.1" style="enable-background:new 0 0 15 15.1;" xml:space="preserve">
<polygon points="5.3,7.4 7,8.6 8.7,7.4 7,6.3 "/>
<polyline points="7.3,9 7.3,11 9,9.8 9,7.9 7.3,9 "/>
<polyline points="6.8,9 6.8,11 5.1,9.8 5.1,7.9 6.8,9 "/>
<path d="M5.4,11.8L5.4,11.8C5.5,11.8,5.5,11.8,5.4,11.8z"/>
<path d="M6.2,11.6L6.2,11.6l-0.5-0.3L5,10.7c-0.1-0.1-0.3-0.1-0.4,0.1c0,0,0,0,0,0c-0.1,0.2,0,0.4,0.1,0.5c0,0,0,0,0,0l0,0l0.1,0.1
	l0,0l0.6,0.4l0,0l0,0c0.1,0,0.1,0.1,0,0.2c0,0.1-0.1,0.1-0.2,0l0,0l0,0l-0.6-0.4c-0.1-0.1-0.3-0.2-0.3-0.2c-0.1,0-0.1-0.1-0.1-0.2
	c0,0,0,0,0,0V9.6c0,0,0,0,0,0l0,0c0,0,0,0,0,0c0-0.2-0.2-0.4-0.3-0.4c-0.1,0-0.1,0-0.2,0.1C3.6,9.3,3.6,9.4,3.6,9.5v2.2c0,0,0,0,0,0
	c0,0.2,0.1,0.3,0.1,0.5c0,0,0,0.1,0.1,0.1c0.1,0.1,0.2,0.2,0.3,0.3l0.8,0.5c0.1,0.1,0.3,0.2,0.3,0.3c0,0,0,0.1,0.1,0.1
	c0,0.1,0.1,0.2,0.1,0.4c0,0.2,0.1,0.3,0.2,0.4c0.4,0.3,1.1,0.8,1.1,0.8v-2.4C6.8,12.2,6.6,11.8,6.2,11.6z"/>
<path d="M7.9,11.6L7.9,11.6l0.5-0.3l0.7-0.5c0.1-0.1,0.3-0.1,0.4,0.1c0,0,0,0,0,0c0.1,0.2,0,0.4-0.1,0.5c0,0,0,0,0,0l0,0l-0.1,0.1
	l0,0l-0.6,0.4l0,0l0,0c-0.1,0-0.1,0.1,0,0.2c0,0.1,0.2,0.1,0.2,0l0,0l0,0l0.6-0.4c0.1-0.1,0.3-0.2,0.3-0.2c0.1,0,0.1-0.1,0.1-0.2
	c0,0,0,0,0,0V9.6c0,0,0,0,0,0l0,0c0,0,0,0,0,0c0-0.2,0.2-0.4,0.4-0.4c0.1,0,0.2,0,0.2,0.1c0.1,0.1,0.1,0.1,0.1,0.3v2.2c0,0,0,0,0,0
	c0,0.2-0.1,0.4-0.2,0.6c-0.1,0.1-0.2,0.2-0.3,0.3l-0.8,0.5c-0.1,0.1-0.3,0.2-0.3,0.3c0,0,0,0.1-0.1,0.1c0,0.1-0.1,0.2-0.1,0.4
	c0,0.2-0.1,0.3-0.2,0.4c-0.4,0.3-1.1,0.8-1.1,0.8v-2.4C7.3,12.2,7.5,11.8,7.9,11.6z"/>
<path d="M1,1.7H0.6L0,0h0.5l0.4,1.2L1.2,0h0.5L1,1.7z"/>
<path d="M2.1,1.7V0h0.4v1.7H2.1z"/>
<path d="M4.1,1.7L3.8,1.1H3.5v0.6H3.1V0h0.8C3.9,0,4,0,4,0c0.1,0,0.3,0,0.5,0.3c0,0.1,0.1,0.2,0.1,0.3c0,0.2-0.1,0.3-0.1,0.3
	c0,0-0.1,0-0.1,0.1c0,0-0.1,0-0.1,0.1l0.4,0.7L4.1,1.7L4.1,1.7z M3.9,0.3H3.5v0.5h0.4c0,0,0.1,0,0.1,0c0.1,0,0.1-0.2,0.1-0.2
	C4.1,0.3,4,0.3,3.9,0.3z"/>
<path d="M5.8,0.3v1.4H5.3V0.3H4.9V0h1.3v0.3H5.8z"/>
<path d="M8.1,1.3C8,1.7,7.5,1.7,7.4,1.7c-0.1,0-0.4,0-0.6-0.2C6.7,1.4,6.7,1.2,6.7,1V0h0.4v1.1c0,0.2,0,0.2,0.1,0.3
	c0.1,0.1,0.2,0.1,0.2,0.1c0.1,0,0.2,0,0.2-0.1c0.1-0.1,0.1-0.2,0.1-0.3V0h0.4v1C8.1,1.1,8.1,1.2,8.1,1.3z"/>
<path d="M9.7,1.7L9.7,1.4H9L8.9,1.7H8.5L9.1,0h0.4l0.6,1.7H9.7z M9.3,0.4L9.1,1.1h0.4L9.3,0.4z"/>
<path d="M10.5,1.7V0H11v1.4h0.7v0.4H10.5z"/>
<path d="M12.1,1.7V0h0.4v1.4h0.7v0.4H12.1z"/>
<path d="M14.4,0.9v0.8h-0.4V0.9L13.3,0h0.5l0.4,0.6L14.5,0H15L14.4,0.9z"/>
<path d="M2.4,4.2C2.3,4.3,2.1,4.3,2,4.3H1.2V2.6h0.7c0,0,0.1,0,0.1,0c0.2,0,0.4,0,0.5,0.2C2.5,2.9,2.6,2.9,2.6,3
	c0,0.2-0.1,0.3-0.2,0.4c0,0-0.1,0-0.1,0c0,0,0,0,0.1,0c0.2,0,0.3,0.1,0.3,0.2c0,0.1,0,0.1,0,0.2C2.6,4,2.6,4.1,2.4,4.2z M2,2.9
	C2,2.9,2,2.9,2,2.9l-0.5,0v0.4h0.3c0,0,0.1,0,0.1,0c0.1,0,0.1-0.1,0.1-0.1c0,0,0-0.1,0-0.1C2.2,3,2.1,2.9,2,2.9L2,2.9z M2.1,3.6
	c0,0-0.1,0-0.1,0H1.6V4h0.3C2,4,2.1,4,2.2,3.9c0,0,0-0.1,0-0.1C2.2,3.7,2.1,3.6,2.1,3.6L2.1,3.6z"/>
<path d="M3.2,4.3V2.6h0.4v1.4h0.7v0.4C4.3,4.3,3.2,4.3,3.2,4.3z"/>
<path d="M4.8,4.3V2.6H6v0.3H5.2v0.3H6v0.3H5.2V4h0.9v0.3H4.8z"/>
<path d="M8,4C7.8,4.3,7.5,4.3,7.4,4.3c-0.1,0-0.1,0-0.2,0c-0.3,0-0.5-0.1-0.6-0.2C6.5,4.1,6.5,4,6.5,4l0.3-0.2c0,0,0,0.1,0.1,0.1
	C7,4,7.1,4,7.3,4c0,0,0.1,0,0.1,0c0,0,0.2-0.1,0.2-0.2c0-0.2-0.2-0.2-0.4-0.2c-0.1,0-0.2,0-0.2,0c-0.1,0-0.2-0.1-0.3-0.2
	c0,0-0.1-0.1-0.1-0.1c0,0,0-0.1,0-0.2c0,0,0-0.1,0-0.1c0-0.1,0.1-0.2,0.1-0.3C6.8,2.6,7,2.6,7.2,2.6c0.2,0,0.4,0.1,0.6,0.2
	c0.1,0,0.1,0.1,0.2,0.1L7.7,3.1C7.6,3,7.5,3,7.4,2.9c-0.1,0-0.1,0-0.2,0C7.1,2.9,7,3,7,3.1c0,0,0,0.1,0,0.1c0.1,0.1,0.2,0.1,0.3,0.1
	c0.1,0,0.2,0,0.3,0.1c0.1,0,0.3,0.1,0.4,0.3c0,0.1,0,0.1,0,0.2C8,3.8,8,3.9,8,4z"/>
<path d="M9.9,4C9.8,4.3,9.4,4.3,9.4,4.3c-0.1,0-0.1,0-0.2,0c-0.3,0-0.5-0.1-0.6-0.2C8.5,4.1,8.4,4,8.4,4l0.3-0.2c0,0,0,0.1,0.1,0.1
	C8.9,4,9.1,4,9.2,4c0,0,0.1,0,0.1,0c0,0,0.2-0.1,0.2-0.2c0-0.2-0.2-0.2-0.4-0.2c-0.1,0-0.2,0-0.2,0c-0.1,0-0.2-0.1-0.3-0.2
	c0,0-0.1-0.1-0.1-0.1c0,0,0-0.1,0-0.2c0,0,0-0.1,0-0.1c0-0.1,0.1-0.2,0.1-0.3c0.1-0.1,0.2-0.2,0.5-0.2c0.2,0,0.4,0.1,0.6,0.2
	c0.1,0,0.1,0.1,0.2,0.1L9.6,3.1C9.5,3,9.5,3,9.3,2.9c-0.1,0-0.1,0-0.2,0C9,2.9,8.9,3,8.9,3.1c0,0,0,0.1,0,0.1C9,3.2,9.1,3.2,9.3,3.2
	c0.1,0,0.2,0,0.3,0.1c0.1,0,0.3,0.1,0.4,0.3c0,0.1,0,0.1,0,0.2C10,3.8,9.9,3.9,9.9,4z"/>
<path d="M10.5,4.3V2.6h1.3v0.3h-0.8v0.3h0.8v0.3h-0.8V4h0.9v0.3H10.5z"/>
<path d="M13.6,4.1c-0.1,0.1-0.2,0.2-0.4,0.2c-0.1,0-0.2,0-0.3,0h-0.7V2.6h0.5c0.1,0,0.1,0,0.2,0c0.1,0,0.4,0,0.6,0.2
	c0.1,0,0.1,0.1,0.1,0.2c0.1,0.1,0.1,0.2,0.1,0.5C13.8,3.8,13.7,4,13.6,4.1z M13.3,3.1C13.3,3,13.2,3,13.1,3c-0.1,0-0.1,0-0.2,0h-0.2
	v1h0.1c0.1,0,0.3,0,0.4-0.1c0.1-0.1,0.2-0.2,0.2-0.4C13.4,3.3,13.4,3.2,13.3,3.1L13.3,3.1z"/>
</svg>
