<?xml version="1.0" encoding="utf-8"?>
<!-- Generator: Adobe Illustrator 25.1.0, SVG Export Plug-In . SVG Version: 6.00 Build 0)  -->
<svg version="1.1" id="Layer_1" xmlns="http://www.w3.org/2000/svg" xmlns:xlink="http://www.w3.org/1999/xlink" x="0px" y="0px"
	 viewBox="0 0 681.7 684.9" style="enable-background:new 0 0 681.7 684.9;" xml:space="preserve">
<polygon points="242.3,338.5 318.3,390.4 395.2,338.4 319.2,285.4 "/>
<polyline points="330.3,410.4 330.2,500.4 408.2,447.4 408.2,357.4 330.2,410.4 "/>
<polyline points="308.9,410.4 308.9,500.4 231,447.4 231,357.4 308.9,410.4 "/>
<path d="M247.1,536.9l1.6,1.1C248.2,537.6,247.7,537.2,247.1,536.9z"/>
<path d="M281.6,525.5l-0.3-0.2l-21.1-14.4L226.7,488c-5.8-4.1-13.9-2.6-17.9,3.2c-0.1,0.2-0.3,0.4-0.4,0.6c-4.4,7.4-2.2,16.9,5,21.6
	c0.9,0.6,1.5,1,1.9,1.2l0.4,0.2l4.3,3l0,0l28,19.1l0,0l0.1,0.1c3.3,2.2,4.1,6.7,1.9,9.9s-6.7,4.1-9.9,1.9l-0.1-0.1l0,0L214,531
	c-6.1-4.1-11.7-7.7-14.5-9.6c-2.6-1.7-4.3-4.4-4.8-7.5c-0.1-0.5-0.1-1-0.1-1.5v-76.6c0-0.4,0-0.8-0.1-1.2l0,0c0-0.4,0.1-0.8,0.1-1.2
	c0-8.8-7.1-15.9-15.8-15.9c-3.4,0-6.7,1.1-9.4,3.1c-4.1,2.5-6.6,6.9-6.5,11.7v102.4c0,0.6,0,1.1,0,1.7c0.3,7.4,2.3,14.6,6,21.1
	c0.8,1.4,1.7,2.8,2.6,4.1c4.1,5.8,9.4,10.6,15.5,14.1l36.8,20.9c6.1,3.5,11.5,8.3,15.5,14c0.9,1.3,1.8,2.7,2.6,4.2
	c1.9,3.3,3.4,10.4,4.5,16.5c1.2,6.8,5,12.8,10.6,16.8c16.5,11.8,52.2,37,52.2,37v-110C309.2,554.9,298.9,535.5,281.6,525.5z"/>
<path d="M358.3,525.5l0.3-0.2l21.1-14.4l33.5-22.8c5.8-4.1,13.9-2.6,17.9,3.2c0.1,0.2,0.3,0.4,0.4,0.6c4.4,7.4,2.2,16.9-5,21.6
	c-0.9,0.6-1.5,1-1.9,1.2l-0.4,0.2l-4.3,3l0,0L392,537l0,0l-0.1,0.1c-3.3,2.2-4.1,6.7-1.9,9.9s6.7,4.1,9.9,1.9l0.1-0.1l0,0l25.9-17.7
	c6.1-4.1,11.7-7.7,14.5-9.6c2.6-1.7,4.3-4.4,4.8-7.5c0.1-0.5,0.1-1,0.1-1.5v-76.6c0-0.4,0-0.8,0.1-1.2l0,0c0-0.4-0.1-0.8-0.1-1.2
	c0-8.8,7.1-15.9,15.9-15.9c3.4,0,6.7,1.1,9.4,3.1c4.1,2.5,6.6,6.9,6.5,11.7v102.4c0,0.6,0,1.1,0,1.7c-0.4,9-3.4,17.8-8.6,25.2
	c-4.1,5.8-9.4,10.6-15.5,14l-36.8,20.9c-6.1,3.5-11.5,8.3-15.5,14c-0.9,1.3-1.8,2.7-2.6,4.2c-1.9,3.3-3.4,10.4-4.5,16.5
	c-1.2,6.8-5,12.8-10.6,16.8c-16.5,11.8-52.2,37-52.2,37v-110C330.8,554.9,341,535.5,358.3,525.5z"/>
<path d="M46.4,77.7H26.6L0,0h20.7l16.1,55.2L52.7,0h20.7L46.4,77.7z"/>
<path d="M93.7,77.7V0h19.4v77.7H93.7z"/>
<path d="M188.2,77.7l-15.5-27.7h-12.1v27.7H141V0h35c2.2,0,4.4,0,6.6,0.1c3.5,0.2,15.8,1,21.9,12.1c2.1,4,3.1,8.5,3.1,13
	c0,8.7-3.4,13.3-6,15.8c-1.1,1.1-2.3,2-3.6,2.9c-2,1.1-4.1,2-6.3,2.8l17.9,31H188.2z M177,14.4h-16.5v21.1h16.1
	c1.8,0,3.5-0.2,5.2-0.8c6.3-2.1,6.5-8,6.5-10C188.2,14.6,180.4,14.4,177,14.4z"/>
<path d="M262.8,15.3v62.4h-19.6V15.3H223V0h59.9v15.3H262.8z"/>
<path d="M368,60.1c-6.5,18.2-27,19.4-31.3,19.4c-3.4,0-16.4-0.6-25.2-9.4c-7.5-7.5-7.7-17-7.7-26.7V0h19.6v48.4
	c0,6.9,0.5,9.6,3.6,12c3.8,3,9,3,10.3,3c3.6,0,6.8-0.4,9.6-2.9c3.6-3.2,3.7-7.8,3.7-12.2V0H370v43.3C370,49.1,369.8,54.7,368,60.1z"
	/>
<path d="M442.4,77.7l-3.8-12.4H410l-3.8,12.4h-20.7L414.3,0h20.2l28.6,77.7H442.4z M424,18.5l-9.6,32.8h19.7L424,18.5z"/>
<path d="M479.4,77.7V0h19.4v61.3h30.4v16.4H479.4z"/>
<path d="M552,77.7V0h19.4v61.3h30.4v16.4H552z"/>
<path d="M652.3,40.9v36.7h-19.1V41.5L604,0h22.2l16.7,26.3L659.6,0h22.1L652.3,40.9z"/>
<path d="M110.5,190.8c-6.4,4.3-13.9,4.8-21.3,4.8H53.1V118H85c2.1,0,4.2,0,6.2,0.1c8,0.3,16.6,1.3,21.9,8.4
	c2.5,3.3,3.8,7.3,3.7,11.4c0.2,6.9-3.8,13.2-10.1,15.9c-2.1,0.8-4.3,1.5-6.5,1.9c1,0.1,2.1,0.3,3.1,0.6c9.1,1.6,12.9,5.8,14.7,9.7
	c1.2,2.5,1.8,5.2,1.8,8C119.7,180.8,116.2,187.1,110.5,190.8z M92.7,133.1c-1.4-0.4-2.9-0.6-4.4-0.6H71.6v16.2h14.6
	c0.1,0,2.9-0.1,4.4-0.3c4.4-0.8,5.8-2.8,6.5-4.5c0.4-1.2,0.7-2.4,0.7-3.6C97.9,136.9,95.8,134,92.7,133.1L92.7,133.1z M94.7,163.5
	c-1.4-0.6-3-0.8-6.3-0.8H71.6v18.8h13.5c6.9,0,10.3-0.8,12.9-3.4c1.4-1.6,2.2-3.8,2.1-5.9C100.1,166.5,96.9,164.3,94.7,163.5
	L94.7,163.5z"/>
<path d="M143.8,195.7V118h19.4v61.3h30.4v16.4H143.8z"/>
<path d="M216.3,195.7V118h57.4v15h-38.1v14.2h35.5v14.7h-35.5v18.5h41.6v15.3H216.3z"/>
<path d="M361.4,182.6c-6.7,12.2-20.7,13.9-24.4,14.3c-2.6,0.4-5.2,0.5-7.8,0.5c-15.4,0-24.1-5.2-29.3-9.4c-2.3-2-4.3-4.1-6.2-6.5
	l14.7-9.2c1.1,1.2,2.2,2.3,3.4,3.3c5.1,4.2,12.5,6.5,19,6.5c2,0,4.1-0.2,6-0.8c0.5-0.1,8.2-2.3,8.2-8.2c0-7.1-10.3-7.4-17.3-8.4
	c-3.7-0.5-7.4-1.1-11-2c-5.6-1.4-10.8-3.5-14.6-8.1c-1.5-1.7-2.6-3.6-3.3-5.7c-0.7-2.2-1-4.5-1-6.8c0-1.8,0.2-3.6,0.4-5.4
	c0.8-4.8,3.1-9.2,6.7-12.4c3.8-3.6,11.4-8.1,24.2-8.1c9.1-0.1,18.1,2.6,25.6,7.7c3,2.1,5.9,4.4,8.6,6.9L349.3,141
	c-4.3-4.2-7.3-6.6-13.1-8.5c-2.4-0.7-4.8-1-7.3-1.1c-7.9,0-11.5,4.6-11.5,8.2c0,1.5,0.6,3,1.7,4.1c2.6,2.9,6.9,2.8,14.2,3.9
	c4.4,0.7,8.7,1.5,13,2.5c2.8,0.6,12.8,2.5,16.7,12c1,2.7,1.5,5.5,1.5,8.4C364.5,174.7,363.4,178.9,361.4,182.6z"/>
<path d="M450,182.6c-6.7,12.2-20.7,13.9-24.4,14.3c-2.6,0.4-5.2,0.5-7.8,0.5c-15.4,0-24.1-5.2-29.3-9.4c-2.3-2-4.3-4.1-6.2-6.5
	l14.7-9.2c1.1,1.2,2.2,2.3,3.4,3.3c5.1,4.2,12.5,6.5,19,6.5c2,0,4-0.2,6-0.8c0.5-0.1,8.2-2.3,8.2-8.2c0-7.1-10.3-7.4-17.3-8.4
	c-3.7-0.5-7.4-1.1-11-2c-5.6-1.4-10.8-3.5-14.6-8.1c-1.5-1.7-2.6-3.6-3.3-5.7c-0.7-2.2-1-4.5-1-6.8c0-1.8,0.2-3.6,0.4-5.4
	c0.8-4.8,3.1-9.2,6.7-12.4c3.8-3.6,11.4-8.1,24.2-8.1c9.1-0.1,18.1,2.6,25.6,7.7c3,2.1,5.9,4.4,8.6,6.9L437.9,141
	c-4.3-4.2-7.3-6.6-13.1-8.5c-2.4-0.7-4.8-1-7.3-1.1c-7.9,0-11.5,4.6-11.5,8.2c0,1.5,0.6,3,1.7,4.1c2.6,2.9,6.9,2.8,14.2,3.9
	c4.4,0.7,8.7,1.5,13,2.5c2.8,0.6,12.8,2.5,16.7,12c1,2.7,1.5,5.5,1.5,8.4C453.1,174.7,452,178.9,450,182.6z"/>
<path d="M477.3,195.7V118h57.4v15h-38.1v14.2h35.5v14.7h-35.5v18.5h41.6v15.3H477.3z"/>
<path d="M619.6,184.3c-4.7,5.1-10.9,8.6-17.7,10.1c-4.1,0.9-8.3,1.3-12.4,1.2H559V118h24.8c2.4,0,4.7,0,7,0.1
	c3.3,0.2,16.3,0.6,25.7,8.4c2.5,1.9,4.5,4.3,6.2,7c2.8,4.3,5.8,11.2,5.8,22.7C628.5,170.8,623.8,179.5,619.6,184.3z M604.6,140.8
	c-2-2.5-4.6-4.3-7.6-5.3c-3.6-1.2-6.9-1.1-10.7-1.1h-7.8V180h5.9c5.7,0,12.3-0.3,17.4-4.1c4-3,7.2-8.6,7.2-19.1
	C609,150.9,608.4,145.5,604.6,140.8L604.6,140.8z"/>
</svg>
