<svg id="Layer_1" data-name="Layer 1" xmlns="http://www.w3.org/2000/svg" viewBox="0 0 681.66 684.9"><polygon points="242.3 338.45 318.26 390.43 395.19 338.41 319.23 285.43 242.3 338.45"/><polyline points="330.26 410.43 330.25 500.43 408.19 447.43 408.19 357.43 330.25 410.43"/><polyline points="308.9 410.43 308.91 500.43 230.97 447.43 230.97 357.43 308.91 410.43"/><path d="M589.25,599.74l1.57,1.1A6.62,6.62,0,0,0,589.25,599.74Z" transform="translate(-342.11 -62.84)"/><path d="M623.74,588.3l-.34-.22-21.14-14.41L568.8,550.85a12.88,12.88,0,0,0-18.32,3.83,16,16,0,0,0,5,21.56c.88.56,1.55,1,1.91,1.21l.38.25,4.35,3,0,0L590.1,599.8h0l.13.08a7.14,7.14,0,0,1-8.06,11.8l-.12-.1h0l-25.93-17.71c-6.13-4.07-11.65-7.72-14.54-9.63a10.93,10.93,0,0,1-4.76-7.5,9.62,9.62,0,0,1-.09-1.52v-76.6c0-.42,0-.83-.06-1.24v0c0-.42.06-.83.06-1.25a15.88,15.88,0,0,0-25.28-12.83A13.65,13.65,0,0,0,504.9,495V597.41c0,.56,0,1.13,0,1.68a45.77,45.77,0,0,0,5.95,21.06,47.9,47.9,0,0,0,2.6,4.14A48.44,48.44,0,0,0,529,638.34l36.78,20.91a48.37,48.37,0,0,1,15.55,14c.94,1.34,1.8,2.73,2.6,4.15,1.86,3.3,3.43,10.43,4.5,16.51a26.23,26.23,0,0,0,10.6,16.81c16.49,11.81,52.21,37,52.21,37v-110C651.26,617.78,641,598.31,623.74,588.3Z" transform="translate(-342.11 -62.84)"/><path d="M700.42,588.3l.34-.22,21.14-14.41,33.46-22.82a12.88,12.88,0,0,1,18.32,3.83,16,16,0,0,1-5,21.56c-.88.56-1.55,1-1.91,1.21l-.38.25-4.35,3,0,0L734.06,599.8h0l-.13.08a7.14,7.14,0,0,0,8.06,11.8l.12-.1h0l25.93-17.71c6.13-4.07,11.65-7.72,14.54-9.63a10.93,10.93,0,0,0,4.76-7.5,9.62,9.62,0,0,0,.09-1.52v-76.6c0-.42,0-.83.06-1.24v0c0-.42-.06-.83-.06-1.25a15.89,15.89,0,0,1,25.29-12.83A13.66,13.66,0,0,1,819.26,495V597.41c0,.56,0,1.13,0,1.68a47.33,47.33,0,0,1-8.56,25.2,48.44,48.44,0,0,1-15.54,14.05l-36.78,20.91a48.37,48.37,0,0,0-15.55,14c-.94,1.34-1.8,2.73-2.6,4.15-1.86,3.3-3.43,10.43-4.5,16.51a26.23,26.23,0,0,1-10.6,16.81c-16.49,11.81-52.21,37-52.21,37v-110C672.9,617.78,683.14,598.31,700.42,588.3Z" transform="translate(-342.11 -62.84)"/><path d="M388.53,140.5h-19.8L342.11,62.84h20.68l16.06,55.22L394.8,62.84h20.68Z" transform="translate(-342.11 -62.84)"/><path d="M435.83,140.5V62.84h19.36V140.5Z" transform="translate(-342.11 -62.84)"/><path d="M530.32,140.5l-15.51-27.72h-12.1V140.5H483.13V62.84h35c2.2,0,4.4,0,6.6.11,3.52.22,15.84,1,21.89,12.1a27.81,27.81,0,0,1,3.08,13c0,8.69-3.41,13.31-6,15.84a21.8,21.8,0,0,1-3.63,2.86,49.49,49.49,0,0,1-6.27,2.75l17.93,31ZM519.1,77.25H502.6V98.37h16.06a15.85,15.85,0,0,0,5.17-.77c6.27-2.09,6.49-8,6.49-10C530.32,77.47,522.51,77.25,519.1,77.25Z" transform="translate(-342.11 -62.84)"/><path d="M604.9,78.13V140.5H585.32V78.13H565.08V62.84H625V78.13Z" transform="translate(-342.11 -62.84)"/><path d="M710.06,122.9c-6.49,18.15-26.95,19.36-31.35,19.36-3.41,0-16.39-.55-25.19-9.35-7.48-7.48-7.7-17-7.7-26.73V62.84H665.4v48.4c0,6.93.55,9.57,3.63,12,3.85,3,9,3,10.34,3,3.63,0,6.82-.44,9.57-2.86,3.63-3.19,3.74-7.81,3.74-12.21V62.84h19.47v43.34C712.15,111.9,711.93,117.51,710.06,122.9Z" transform="translate(-342.11 -62.84)"/><path d="M784.53,140.5l-3.85-12.43h-28.6l-3.85,12.43H727.55l28.82-77.66h20.24l28.6,77.66ZM766.16,81.32l-9.57,32.78h19.69Z" transform="translate(-342.11 -62.84)"/><path d="M821.49,140.5V62.84h19.36v61.27h30.36V140.5Z" transform="translate(-342.11 -62.84)"/><path d="M894.09,140.5V62.84h19.36v61.27h30.36V140.5Z" transform="translate(-342.11 -62.84)"/><path d="M994.41,103.76V140.5H975.27V104.31L946.12,62.84h22.22l16.72,26.29,16.61-26.29h22.11Z" transform="translate(-342.11 -62.84)"/><path d="M452.61,253.66c-6.38,4.29-13.86,4.84-21.34,4.84H395.19V180.84h31.9c2.09,0,4.18,0,6.16.11,8,.33,16.61,1.32,21.89,8.36a18,18,0,0,1,3.74,11.44,16.7,16.7,0,0,1-10.12,15.95,32.34,32.34,0,0,1-6.49,1.87,25.58,25.58,0,0,1,3.08.55c9.13,1.65,12.87,5.83,14.74,9.68a18.37,18.37,0,0,1,1.76,8A20.18,20.18,0,0,1,452.61,253.66Zm-17.82-57.75a13.29,13.29,0,0,0-4.4-.55H413.67v16.17H428.3c.11,0,2.86-.11,4.4-.33,4.4-.77,5.83-2.75,6.49-4.51a10,10,0,0,0,.66-3.63A7,7,0,0,0,434.79,195.91Zm2,30.47c-1.43-.55-3-.77-6.27-.77H413.67v18.81H427.2c6.93,0,10.34-.77,12.87-3.41a8.41,8.41,0,0,0,2.09-5.94C442.16,229.35,439,227.15,436.77,226.38Z" transform="translate(-342.11 -62.84)"/><path d="M485.94,258.5V180.84H505.3v61.27h30.36V258.5Z" transform="translate(-342.11 -62.84)"/><path d="M558.43,258.5V180.84h57.42v15H577.79V210h35.53v14.74H577.79v18.48h41.58V258.5Z" transform="translate(-342.11 -62.84)"/><path d="M703.52,245.41c-6.71,12.21-20.68,13.86-24.42,14.3a60.71,60.71,0,0,1-7.81.55c-15.4,0-24.09-5.17-29.26-9.35a45.62,45.62,0,0,1-6.16-6.49l14.74-9.24a34,34,0,0,0,3.41,3.3c5.06,4.18,12.54,6.49,19,6.49a21.42,21.42,0,0,0,6.05-.77c.55-.11,8.25-2.31,8.25-8.25,0-7.15-10.34-7.37-17.27-8.36a96.24,96.24,0,0,1-11-2c-5.61-1.43-10.78-3.52-14.63-8.14a17.58,17.58,0,0,1-3.3-5.72,24.16,24.16,0,0,1-1-6.82,45.67,45.67,0,0,1,.44-5.39,21.41,21.41,0,0,1,6.71-12.43c3.85-3.63,11.44-8.14,24.2-8.14a45.12,45.12,0,0,1,25.63,7.7,75.48,75.48,0,0,1,8.58,6.93l-14.3,10.23c-4.29-4.18-7.26-6.6-13.09-8.47a30.32,30.32,0,0,0-7.26-1.1c-7.92,0-11.55,4.62-11.55,8.25a5.87,5.87,0,0,0,1.65,4.07c2.64,2.86,6.93,2.75,14.19,3.85,4.4.66,8.69,1.54,13,2.53,2.75.55,12.76,2.53,16.72,12a23.24,23.24,0,0,1,1.54,8.36A25,25,0,0,1,703.52,245.41Z" transform="translate(-342.11 -62.84)"/><path d="M792.07,245.41c-6.71,12.21-20.68,13.86-24.42,14.3a60.71,60.71,0,0,1-7.81.55c-15.4,0-24.09-5.17-29.26-9.35a45.62,45.62,0,0,1-6.16-6.49l14.74-9.24a34,34,0,0,0,3.41,3.3c5.06,4.18,12.54,6.49,19,6.49a21.42,21.42,0,0,0,6-.77c.55-.11,8.25-2.31,8.25-8.25,0-7.15-10.34-7.37-17.27-8.36a96.24,96.24,0,0,1-11-2c-5.61-1.43-10.78-3.52-14.63-8.14a17.58,17.58,0,0,1-3.3-5.72,24.16,24.16,0,0,1-1-6.82,45.67,45.67,0,0,1,.44-5.39,21.41,21.41,0,0,1,6.71-12.43c3.85-3.63,11.44-8.14,24.2-8.14a45.12,45.12,0,0,1,25.63,7.7,75.48,75.48,0,0,1,8.58,6.93L780,203.83c-4.29-4.18-7.26-6.6-13.09-8.47a30.32,30.32,0,0,0-7.26-1.1c-7.92,0-11.55,4.62-11.55,8.25a5.87,5.87,0,0,0,1.65,4.07c2.64,2.86,6.93,2.75,14.19,3.85,4.4.66,8.69,1.54,13,2.53,2.75.55,12.76,2.53,16.72,12a23.24,23.24,0,0,1,1.54,8.36A25,25,0,0,1,792.07,245.41Z" transform="translate(-342.11 -62.84)"/><path d="M819.45,258.5V180.84h57.42v15H838.81V210h35.53v14.74H838.81v18.48h41.58V258.5Z" transform="translate(-342.11 -62.84)"/><path d="M961.68,247.17A33.88,33.88,0,0,1,944,257.29a52.39,52.39,0,0,1-12.43,1.21H901.07V180.84h24.75c2.42,0,4.73,0,7,.11,3.3.22,16.28.55,25.74,8.36a26.28,26.28,0,0,1,6.16,7c2.75,4.29,5.83,11.22,5.83,22.66C970.59,233.64,965.86,242.33,961.68,247.17Zm-15-43.56a15.88,15.88,0,0,0-7.59-5.28c-3.63-1.21-6.93-1.1-10.67-1.1h-7.81v45.65h5.94c5.72,0,12.32-.33,17.38-4.07,4-3,7.15-8.58,7.15-19.14C951.12,213.73,950.46,208.34,946.72,203.61Z" transform="translate(-342.11 -62.84)"/></svg>