<?xml version="1.0" encoding="utf-8"?>
<!-- Generator: Adobe Illustrator 25.1.0, SVG Export Plug-In . SVG Version: 6.00 Build 0)  -->
<svg version="1.1" id="Layer_1" xmlns="http://www.w3.org/2000/svg" xmlns:xlink="http://www.w3.org/1999/xlink" x="0px" y="0px"
	 viewBox="0 0 30 30.1" style="enable-background:new 0 0 30 30.1;" xml:space="preserve">
<polygon points="10.7,14.9 14.1,17.2 17.4,14.9 14.1,12.6 "/>
<polyline points="14.6,18.1 14.6,22 18,19.7 18,15.7 14.6,18.1 "/>
<polyline points="13.6,18.1 13.6,22 10.2,19.7 10.2,15.7 13.6,18.1 "/>
<path d="M10.9,23.6L10.9,23.6C11,23.7,11,23.7,10.9,23.6z"/>
<path d="M12.4,23.1L12.4,23.1l-0.9-0.6l-1.5-1c-0.3-0.2-0.6-0.1-0.8,0.1c0,0,0,0,0,0C9,22,9.1,22.4,9.4,22.6c0,0,0.1,0,0.1,0.1l0,0
	l0.2,0.1l0,0l1.2,0.8l0,0l0,0c0.2,0.1,0.2,0.3,0.1,0.4c-0.1,0.1-0.3,0.2-0.4,0.1l0,0l0,0l-1.1-0.8C9.2,23.2,9,23.1,8.8,23
	c-0.1-0.1-0.2-0.2-0.2-0.3c0,0,0,0,0-0.1v-3.4c0,0,0,0,0-0.1l0,0c0,0,0,0,0-0.1c0-0.4-0.3-0.7-0.7-0.7c-0.2,0-0.3,0-0.4,0.1
	c-0.2,0.1-0.3,0.3-0.3,0.5v4.5c0,0,0,0,0,0.1c0,0.3,0.1,0.6,0.3,0.9c0,0.1,0.1,0.1,0.1,0.2C7.8,25,8,25.2,8.3,25.3l1.6,0.9
	c0.3,0.2,0.5,0.4,0.7,0.6c0,0.1,0.1,0.1,0.1,0.2c0.1,0.2,0.2,0.5,0.2,0.7c0.1,0.3,0.2,0.6,0.5,0.7c0.7,0.5,2.3,1.6,2.3,1.6v-4.8
	C13.7,24.4,13.2,23.6,12.4,23.1z"/>
<path d="M15.8,23.1L15.8,23.1l0.9-0.6l1.5-1c0.3-0.2,0.6-0.1,0.8,0.1c0,0,0,0,0,0c0.2,0.3,0.1,0.8-0.2,0.9c0,0-0.1,0-0.1,0.1l0,0
	l-0.2,0.1l0,0l-1.2,0.8l0,0l0,0c-0.2,0.1-0.2,0.3-0.1,0.4c0.1,0.1,0.3,0.2,0.4,0.1l0,0l0,0l1.1-0.8c0.3-0.2,0.5-0.3,0.6-0.4
	c0.1-0.1,0.2-0.2,0.2-0.3c0,0,0,0,0-0.1v-3.4c0,0,0,0,0-0.1l0,0c0,0,0,0,0-0.1c0-0.4,0.3-0.7,0.7-0.7c0.2,0,0.3,0,0.4,0.1
	c0.2,0.1,0.3,0.3,0.3,0.5v4.5c0,0,0,0,0,0.1c0,0.4-0.2,0.8-0.4,1.1c-0.2,0.3-0.4,0.5-0.7,0.6l-1.6,0.9c-0.3,0.2-0.5,0.4-0.7,0.6
	c0,0.1-0.1,0.1-0.1,0.2c-0.1,0.2-0.2,0.5-0.2,0.7c-0.1,0.3-0.2,0.6-0.5,0.7c-0.7,0.5-2.3,1.6-2.3,1.6v-4.8
	C14.6,24.4,15.1,23.6,15.8,23.1z"/>
<path d="M2.1,3.4H1.2L0,0H1l0.7,2.4L2.4,0h0.9L2.1,3.4z"/>
<path d="M4.2,3.4V0H5v3.4H4.2z"/>
<path d="M8.3,3.4L7.7,2.2H7.1v1.2H6.3V0h1.5C7.9,0,8,0,8.1,0c0.2,0,0.7,0,1,0.5c0.1,0.2,0.1,0.4,0.1,0.6c0,0.4-0.2,0.6-0.3,0.7
	c0,0-0.1,0.1-0.2,0.1C8.7,2,8.6,2,8.5,2l0.8,1.4L8.3,3.4L8.3,3.4z M7.8,0.6H7.1v0.9h0.7c0.1,0,0.2,0,0.2,0c0.3-0.1,0.3-0.3,0.3-0.4
	C8.3,0.6,8,0.6,7.8,0.6z"/>
<path d="M11.6,0.7v2.7h-0.9V0.7H9.9V0h2.6v0.7H11.6z"/>
<path d="M16.3,2.6c-0.3,0.8-1.2,0.9-1.4,0.9c-0.2,0-0.7,0-1.1-0.4c-0.3-0.3-0.3-0.8-0.3-1.2V0h0.9v2.1c0,0.3,0,0.4,0.2,0.5
	c0.2,0.1,0.4,0.1,0.5,0.1c0.2,0,0.3,0,0.4-0.1c0.2-0.1,0.2-0.3,0.2-0.5V0h0.9v1.9C16.3,2.2,16.3,2.4,16.3,2.6z"/>
<path d="M19.5,3.4l-0.2-0.5h-1.3l-0.2,0.5H17L18.3,0h0.9l1.3,3.4H19.5z M18.7,0.8l-0.4,1.4h0.9L18.7,0.8z"/>
<path d="M21.2,3.4V0H22v2.7h1.3v0.7H21.2z"/>
<path d="M24.3,3.4V0h0.9v2.7h1.3v0.7H24.3z"/>
<path d="M28.8,1.8v1.6h-0.8V1.8L26.6,0h1l0.7,1.2L29.1,0h1L28.8,1.8z"/>
<path d="M4.9,8.4C4.6,8.6,4.3,8.6,4,8.6H2.4V5.2h1.4c0.1,0,0.2,0,0.3,0c0.3,0,0.7,0.1,1,0.4c0.1,0.2,0.2,0.3,0.2,0.5
	c0,0.3-0.2,0.6-0.5,0.7c-0.1,0-0.2,0.1-0.3,0.1c0,0,0.1,0,0.1,0C5,7,5.2,7.1,5.2,7.3c0.1,0.1,0.1,0.2,0.1,0.3C5.3,8,5.2,8.2,4.9,8.4
	z M4.1,5.9c-0.1,0-0.1,0-0.2,0H3.2v0.7h0.6c0,0,0.1,0,0.2,0c0.2,0,0.3-0.1,0.3-0.2c0-0.1,0-0.1,0-0.2C4.4,6,4.3,5.9,4.1,5.9L4.1,5.9
	z M4.2,7.2c-0.1,0-0.1,0-0.3,0H3.2V8h0.6c0.3,0,0.5,0,0.6-0.2c0.1-0.1,0.1-0.2,0.1-0.3C4.5,7.3,4.3,7.2,4.2,7.2L4.2,7.2z"/>
<path d="M6.4,8.6V5.2h0.9v2.7h1.3v0.7C8.6,8.6,6.4,8.6,6.4,8.6z"/>
<path d="M9.6,8.6V5.2h2.5v0.7h-1.7v0.6H12v0.6h-1.6v0.8h1.8v0.7H9.6z"/>
<path d="M16,8c-0.3,0.5-0.9,0.6-1.1,0.6c-0.1,0-0.2,0-0.3,0c-0.7,0-1.1-0.2-1.3-0.4C13.1,8.2,13,8.1,13,8l0.6-0.4
	c0,0.1,0.1,0.1,0.2,0.2C14,7.9,14.3,8,14.6,8c0.1,0,0.2,0,0.3,0c0,0,0.4-0.1,0.4-0.4c0-0.3-0.5-0.3-0.8-0.4c-0.2,0-0.3,0-0.5-0.1
	c-0.2-0.1-0.5-0.2-0.6-0.4c-0.1-0.1-0.1-0.2-0.2-0.3c0-0.1,0-0.2,0-0.3c0-0.1,0-0.2,0-0.2c0-0.2,0.1-0.4,0.3-0.5
	c0.2-0.2,0.5-0.4,1.1-0.4c0.4,0,0.8,0.1,1.1,0.3c0.1,0.1,0.3,0.2,0.4,0.3l-0.6,0.5c-0.2-0.2-0.3-0.3-0.6-0.4c-0.1,0-0.2,0-0.3,0
	C14.2,5.8,14,6,14,6.1c0,0.1,0,0.1,0.1,0.2c0.1,0.1,0.3,0.1,0.6,0.2c0.2,0,0.4,0.1,0.6,0.1c0.1,0,0.6,0.1,0.7,0.5
	c0,0.1,0.1,0.2,0.1,0.4C16.1,7.7,16,7.9,16,8z"/>
<path d="M19.9,8c-0.3,0.5-0.9,0.6-1.1,0.6c-0.1,0-0.2,0-0.3,0c-0.7,0-1.1-0.2-1.3-0.4C17,8.2,16.9,8.1,16.9,8l0.6-0.4
	c0,0.1,0.1,0.1,0.2,0.2C17.9,7.9,18.2,8,18.5,8c0.1,0,0.2,0,0.3,0c0,0,0.4-0.1,0.4-0.4c0-0.3-0.5-0.3-0.8-0.4c-0.2,0-0.3,0-0.5-0.1
	c-0.2-0.1-0.5-0.2-0.6-0.4c-0.1-0.1-0.1-0.2-0.2-0.3c0-0.1,0-0.2,0-0.3c0-0.1,0-0.2,0-0.2c0-0.2,0.1-0.4,0.3-0.5
	c0.2-0.2,0.5-0.4,1.1-0.4c0.4,0,0.8,0.1,1.1,0.3c0.1,0.1,0.3,0.2,0.4,0.3l-0.6,0.5C19.1,6,19,5.9,18.7,5.8c-0.1,0-0.2,0-0.3,0
	c-0.3,0-0.5,0.2-0.5,0.4c0,0.1,0,0.1,0.1,0.2c0.1,0.1,0.3,0.1,0.6,0.2c0.2,0,0.4,0.1,0.6,0.1c0.1,0,0.6,0.1,0.7,0.5
	C20,7.2,20,7.4,20,7.5C20,7.7,19.9,7.9,19.9,8z"/>
<path d="M21.1,8.6V5.2h2.5v0.7h-1.7v0.6h1.6v0.6h-1.6v0.8h1.8v0.7H21.1z"/>
<path d="M27.3,8.1c-0.2,0.2-0.5,0.4-0.8,0.5c-0.2,0-0.4,0.1-0.5,0.1h-1.4V5.2h1.1c0.1,0,0.2,0,0.3,0c0.2,0,0.7,0,1.1,0.4
	c0.1,0.1,0.2,0.2,0.3,0.3c0.1,0.2,0.3,0.5,0.3,1C27.7,7.5,27.5,7.9,27.3,8.1z M26.7,6.2C26.6,6.1,26.5,6,26.3,6
	c-0.2-0.1-0.3,0-0.5,0h-0.3v2h0.3c0.3,0,0.5,0,0.8-0.2c0.2-0.1,0.3-0.4,0.3-0.8C26.9,6.6,26.8,6.4,26.7,6.2L26.7,6.2z"/>
</svg>
