<?xml version="1.0" encoding="utf-8"?>
<!-- Generator: Adobe Illustrator 25.1.0, SVG Export Plug-In . SVG Version: 6.00 Build 0)  -->
<svg version="1.1" id="Layer_1" xmlns="http://www.w3.org/2000/svg" xmlns:xlink="http://www.w3.org/1999/xlink" x="0px" y="0px"
	 viewBox="0 0 41.2 41.4" style="enable-background:new 0 0 41.2 41.4;" xml:space="preserve">
<polygon points="15.2,20.2 19.7,23.3 24.3,20.2 19.8,17.1 "/>
<polyline points="20.4,24.6 20.4,29.9 25.1,26.8 25.1,21.4 20.4,24.6 "/>
<polyline points="19.2,24.6 19.2,29.9 14.5,26.8 14.5,21.4 19.2,24.6 "/>
<path d="M15.5,32.1l0.1,0.1C15.5,32.2,15.5,32.1,15.5,32.1z"/>
<path d="M17.5,31.4L17.5,31.4l-1.3-0.9l-2-1.4c-0.3-0.2-0.8-0.2-1.1,0.2c0,0,0,0,0,0c-0.3,0.4-0.1,1,0.3,1.3c0.1,0,0.1,0.1,0.1,0.1
	l0,0l0.3,0.2l0,0l1.7,1.1l0,0l0,0c0.2,0.1,0.2,0.4,0.1,0.6c-0.1,0.2-0.4,0.2-0.6,0.1l0,0l0,0l-1.5-1.1c-0.4-0.2-0.7-0.5-0.9-0.6
	c-0.2-0.1-0.3-0.3-0.3-0.4c0,0,0-0.1,0-0.1v-4.6c0,0,0,0,0-0.1l0,0c0,0,0,0,0-0.1c0-0.5-0.4-1-0.9-1c-0.2,0-0.4,0.1-0.6,0.2
	c-0.2,0.1-0.4,0.4-0.4,0.7V32c0,0,0,0.1,0,0.1c0,0.4,0.1,0.9,0.4,1.3c0,0.1,0.1,0.2,0.2,0.2c0.2,0.3,0.6,0.6,0.9,0.8l2.2,1.2
	c0.4,0.2,0.7,0.5,0.9,0.8c0.1,0.1,0.1,0.2,0.2,0.2c0.1,0.2,0.2,0.6,0.3,1c0.1,0.4,0.3,0.8,0.6,1c1,0.7,3.1,2.2,3.1,2.2v-6.6
	C19.2,33.2,18.6,32,17.5,31.4z"/>
<path d="M22.1,31.4L22.1,31.4l1.3-0.9l2-1.4c0.3-0.2,0.8-0.2,1.1,0.2c0,0,0,0,0,0c0.3,0.4,0.1,1-0.3,1.3c-0.1,0-0.1,0.1-0.1,0.1l0,0
	L25.8,31l0,0l-1.7,1.1l0,0l0,0c-0.2,0.1-0.2,0.4-0.1,0.6c0.1,0.2,0.4,0.2,0.6,0.1l0,0l0,0l1.5-1.1c0.4-0.2,0.7-0.5,0.9-0.6
	c0.2-0.1,0.3-0.3,0.3-0.4c0,0,0-0.1,0-0.1v-4.6c0,0,0,0,0-0.1l0,0c0,0,0,0,0-0.1c0-0.5,0.4-1,1-1c0.2,0,0.4,0.1,0.6,0.2
	c0.2,0.1,0.4,0.4,0.4,0.7V32c0,0,0,0.1,0,0.1c0,0.5-0.2,1.1-0.5,1.5c-0.2,0.3-0.6,0.6-0.9,0.8l-2.2,1.2c-0.4,0.2-0.7,0.5-0.9,0.8
	c-0.1,0.1-0.1,0.2-0.2,0.2c-0.1,0.2-0.2,0.6-0.3,1c-0.1,0.4-0.3,0.8-0.6,1c-1,0.7-3.1,2.2-3.1,2.2v-6.6C20.5,33.2,21.1,32,22.1,31.4
	z"/>
<path d="M3.5,4.6H2.3L0.7,0h1.2l1,3.3l1-3.3h1.2L3.5,4.6z"/>
<path d="M6.3,4.6V0h1.2v4.6H6.3z"/>
<path d="M11.9,4.6L11,3h-0.7v1.7H9.1V0h2.1c0.1,0,0.3,0,0.4,0c0.2,0,0.9,0.1,1.3,0.7C13,1,13.1,1.2,13.1,1.5c0,0.5-0.2,0.8-0.4,0.9
	c-0.1,0.1-0.1,0.1-0.2,0.2c-0.1,0.1-0.2,0.1-0.4,0.2l1.1,1.9L11.9,4.6L11.9,4.6z M11.3,0.9h-1v1.3h1c0.1,0,0.2,0,0.3,0
	c0.4-0.1,0.4-0.5,0.4-0.6C11.9,0.9,11.5,0.9,11.3,0.9z"/>
<path d="M16.4,0.9v3.7h-1.2V0.9H14V0h3.6v0.9H16.4z"/>
<path d="M22.7,3.6c-0.4,1.1-1.6,1.2-1.9,1.2c-0.2,0-1,0-1.5-0.6c-0.4-0.4-0.5-1-0.5-1.6V0H20v2.9c0,0.4,0,0.6,0.2,0.7
	c0.2,0.2,0.5,0.2,0.6,0.2c0.2,0,0.4,0,0.6-0.2c0.2-0.2,0.2-0.5,0.2-0.7V0h1.2v2.6C22.8,2.9,22.8,3.3,22.7,3.6z"/>
<path d="M27.1,4.6l-0.2-0.7h-1.7L25,4.6h-1.2L25.5,0h1.2l1.7,4.6H27.1z M26,1.1l-0.6,2h1.2L26,1.1z"/>
<path d="M29.3,4.6V0h1.2v3.7h1.8v1H29.3z"/>
<path d="M33.7,4.6V0h1.2v3.7h1.8v1H33.7z"/>
<path d="M39.7,2.4v2.2h-1.1V2.5L36.8,0h1.3l1,1.6l1-1.6h1.3L39.7,2.4z"/>
<path d="M7.3,11.4c-0.4,0.3-0.8,0.3-1.3,0.3H3.9V7.1h1.9c0.1,0,0.2,0,0.4,0c0.5,0,1,0.1,1.3,0.5C7.6,7.8,7.7,8,7.7,8.2
	c0,0.4-0.2,0.8-0.6,1c-0.1,0-0.3,0.1-0.4,0.1c0.1,0,0.1,0,0.2,0c0.6,0.1,0.8,0.3,0.9,0.6c0.1,0.1,0.1,0.3,0.1,0.5
	C7.8,10.8,7.6,11.2,7.3,11.4z M6.2,8c-0.1,0-0.2,0-0.3,0H5v1h0.9c0,0,0.2,0,0.3,0c0.3,0,0.3-0.2,0.4-0.3c0-0.1,0-0.1,0-0.2
	C6.5,8.2,6.4,8,6.2,8L6.2,8z M6.3,9.8c-0.1,0-0.2,0-0.4,0H5v1.1h0.8c0.4,0,0.6,0,0.8-0.2c0.1-0.1,0.1-0.2,0.1-0.3
	C6.7,10,6.5,9.8,6.3,9.8L6.3,9.8z"/>
<path d="M9.3,11.7V7.1h1.2v3.7h1.8v1C12.3,11.7,9.3,11.7,9.3,11.7z"/>
<path d="M13.6,11.7V7.1h3.4V8h-2.3v0.9h2.1v0.9h-2.1v1.1h2.5v0.9H13.6z"/>
<path d="M22.3,10.9c-0.4,0.7-1.2,0.8-1.5,0.9c-0.2,0-0.3,0-0.5,0c-0.9,0-1.4-0.3-1.8-0.6c-0.1-0.1-0.3-0.2-0.4-0.4l0.9-0.6
	c0.1,0.1,0.1,0.1,0.2,0.2c0.3,0.2,0.8,0.4,1.1,0.4c0.1,0,0.2,0,0.4,0c0,0,0.5-0.1,0.5-0.5c0-0.4-0.6-0.4-1-0.5
	c-0.2,0-0.4-0.1-0.7-0.1c-0.3-0.1-0.7-0.2-0.9-0.5c-0.1-0.1-0.2-0.2-0.2-0.3c0-0.1-0.1-0.3-0.1-0.4c0-0.1,0-0.2,0-0.3
	c0-0.3,0.2-0.6,0.4-0.7c0.2-0.2,0.7-0.5,1.4-0.5c0.6,0,1.1,0.2,1.5,0.5c0.2,0.1,0.3,0.3,0.5,0.4l-0.8,0.6c-0.3-0.2-0.4-0.4-0.8-0.5
	c-0.1,0-0.3-0.1-0.4-0.1c-0.5,0-0.7,0.3-0.7,0.5c0,0.1,0,0.2,0.1,0.2c0.2,0.2,0.4,0.2,0.9,0.2c0.3,0,0.5,0.1,0.8,0.1
	c0.2,0,0.8,0.1,1,0.7c0.1,0.2,0.1,0.3,0.1,0.5C22.5,10.5,22.4,10.7,22.3,10.9z"/>
<path d="M27.6,10.9c-0.4,0.7-1.2,0.8-1.5,0.9c-0.2,0-0.3,0-0.5,0c-0.9,0-1.4-0.3-1.8-0.6c-0.1-0.1-0.3-0.2-0.4-0.4l0.9-0.6
	c0.1,0.1,0.1,0.1,0.2,0.2c0.3,0.2,0.8,0.4,1.1,0.4c0.1,0,0.2,0,0.4,0c0,0,0.5-0.1,0.5-0.5c0-0.4-0.6-0.4-1-0.5
	c-0.2,0-0.4-0.1-0.7-0.1c-0.3-0.1-0.7-0.2-0.9-0.5C24,9.1,23.9,9,23.8,8.9c0-0.1-0.1-0.3-0.1-0.4c0-0.1,0-0.2,0-0.3
	c0-0.3,0.2-0.6,0.4-0.7c0.2-0.2,0.7-0.5,1.4-0.5c0.6,0,1.1,0.2,1.5,0.5c0.2,0.1,0.3,0.3,0.5,0.4l-0.8,0.6c-0.3-0.2-0.4-0.4-0.8-0.5
	c-0.1,0-0.3-0.1-0.4-0.1c-0.5,0-0.7,0.3-0.7,0.5c0,0.1,0,0.2,0.1,0.2c0.2,0.2,0.4,0.2,0.9,0.2c0.3,0,0.5,0.1,0.8,0.1
	c0.2,0,0.8,0.1,1,0.7c0.1,0.2,0.1,0.3,0.1,0.5C27.8,10.5,27.7,10.7,27.6,10.9z"/>
<path d="M29.2,11.7V7.1h3.4V8h-2.3v0.9h2.1v0.9h-2.1v1.1h2.5v0.9H29.2z"/>
<path d="M37.7,11c-0.3,0.3-0.7,0.5-1.1,0.6c-0.2,0.1-0.5,0.1-0.7,0.1h-1.8V7.1h1.5c0.1,0,0.3,0,0.4,0c0.2,0,1,0,1.5,0.5
	c0.1,0.1,0.3,0.3,0.4,0.4c0.2,0.3,0.3,0.7,0.3,1.4C38.3,10.2,38,10.7,37.7,11z M36.9,8.4c-0.1-0.1-0.3-0.3-0.4-0.3
	C36.2,8,36,8,35.8,8h-0.5v2.7h0.3c0.3,0,0.7,0,1-0.2c0.2-0.2,0.4-0.5,0.4-1.1C37.1,9,37.1,8.7,36.9,8.4L36.9,8.4z"/>
</svg>
